<svg id="Layer_1" data-name="Layer 1" xmlns="http://www.w3.org/2000/svg" viewBox="0 0 689 582.56"><defs><style>.cls-1{fill:#fff;}</style></defs><path class="cls-1" d="M1752.82-74.95a25,25,0,0,1-17.67-7.32,25,25,0,0,1-7.33-17.68v-71a25,25,0,0,1,7.33-17.68,25,25,0,0,1,17.67-7.32,25,25,0,0,1,17.68,7.32,25,25,0,0,1,7.32,17.68v71a25,25,0,0,1-7.32,17.68A25,25,0,0,1,1752.82-74.95Z" transform="translate(-1550.34 195.96)"/><path class="cls-1" d="M2036.87-74.95a25,25,0,0,1-17.67-7.32,25,25,0,0,1-7.33-17.68v-71a25,25,0,0,1,7.33-17.68,25,25,0,0,1,17.67-7.32,25,25,0,0,1,17.68,7.32,25,25,0,0,1,7.32,17.68v71a25,25,0,0,1-7.32,17.68A25,25,0,0,1,2036.87-74.95Z" transform="translate(-1550.34 195.96)"/><path class="cls-1" d="M1600.34,31.6h-50V295.1a91.54,91.54,0,0,0,91.5,91.5h506a91.54,91.54,0,0,0,91.5-91.5V31.6ZM2061.46,104h66.75a25,25,0,1,1,0,50h-66.75a25,25,0,0,1,0-50Zm-200,0h66.75a25,25,0,1,1,0,50h-66.75a25,25,0,0,1,0-50Zm-200,0h66.75a25,25,0,1,1,0,50h-66.75a25,25,0,0,1,0-50Zm0,100h66.75a25,25,0,1,1,0,50h-66.75a25,25,0,0,1,0-50Z" transform="translate(-1550.34 195.96)"/><path class="cls-1" d="M2147.84-160.4h-48.5v60.5A62.62,62.62,0,0,1,2081-55.73a62.58,62.58,0,0,1-44.16,18.33,62.69,62.69,0,0,1-44.14-18.36,62.69,62.69,0,0,1-18.36-44.14v-60.5h-159v60.5A62.62,62.62,0,0,1,1797-55.73a62.58,62.58,0,0,1-44.16,18.33,62.61,62.61,0,0,1-44.17-18.33,62.61,62.61,0,0,1-18.33-44.17v-60.5h-48.5a91.51,91.51,0,0,0-64.67,26.8,91.49,91.49,0,0,0-26.83,64.65v50.5h689v-50.5a91.58,91.58,0,0,0-26.83-64.65A91.54,91.54,0,0,0,2147.84-160.4Z" transform="translate(-1550.34 195.96)"/></svg>