<svg id="Capa_1" data-name="Capa 1" xmlns="http://www.w3.org/2000/svg" viewBox="0 0 800 800"><defs><style>.cls-1{fill:#fff;}</style></defs><path class="cls-1" d="M1406.5,647.13c-8.9-24.58-17.31-47.79-23.93-70.3-41.33-140.52,67.7-307,68.8-308.66a21.48,21.48,0,0,0-17.87-33.39h-467a21.49,21.49,0,0,0-17.88,33.38c1.11,1.66,110.13,168.15,68.81,308.67-6.62,22.51-15,45.72-23.93,70.3-39.2,108.2-83.63,230.84-8.55,376a21.49,21.49,0,0,0,19.08,11.61H1396a21.49,21.49,0,0,0,19.08-11.61C1490.13,878,1445.7,755.33,1406.5,647.13Zm-222,10.47c0-11.86,7-21.48,15.54-21.48s15.54,9.62,15.54,21.48-7,21.48-15.54,21.48S1184.46,669.46,1184.46,657.6Zm-95,233.78c-39.79-10.82-79.14-15.35-101.75-17.19-.94-21.7.42-43.43,4.1-67.6h416.32a336.66,336.66,0,0,1,3.95,70.63c-22.63,1.41-61.81,5.18-101.45,15.28-58.27,14.84-92,36.92-110.75,60.32C1174.07,920.88,1129.25,902.19,1089.49,891.38Z" transform="translate(-800 -234.78)"/><path class="cls-1" d="M1578.52,481.76H1490l30.49-29.24a21.48,21.48,0,1,0-29.74-31s-69.45,66.64-69.64,66.85a21.47,21.47,0,0,0,.62,30.36l69,66.22a21.48,21.48,0,1,0,29.74-31L1490,524.72h88.49a21.48,21.48,0,0,0,0-43Z" transform="translate(-800 -234.78)"/><path class="cls-1" d="M821.48,481.76H910l-30.49-29.24a21.48,21.48,0,0,1,29.74-31s69.45,66.64,69.64,66.85a21.47,21.47,0,0,1-.62,30.36l-69,66.22a21.48,21.48,0,1,1-29.74-31L910,524.72H821.48a21.48,21.48,0,0,1,0-43Z" transform="translate(-800 -234.78)"/><rect class="cls-1" x="171" y="544.89" width="461.98" height="203.6"/></svg>