<svg width="168" height="69" viewBox="0 0 168 69" fill="none" xmlns="http://www.w3.org/2000/svg">
<path d="M65.3487 11.0273L76.0459 22.4795L32.7646 22.3771C28.8738 22.3771 26.324 23.6928 25.0389 26.2884L20.8789 22.3669C25.2167 17.8464 27.924 14.1399 29.1278 11.0273L29.1684 10.9198L65.3487 11.0222V11.0273Z" fill="url(#paint0_linear_651_8447)"/>
<path d="M112.759 31.1109H90.6484L71.7988 10.9198H94.5493L112.759 31.1109Z" fill="url(#paint1_linear_651_8447)"/>
<path d="M146.821 68.8874H126.269L109.061 50.6365H130.363L146.821 68.8874Z" fill="url(#paint2_linear_651_8447)"/>
<path d="M73.1799 34.4898H45.4009L38.1475 45.2713H60.7507L46.9704 56.6109C46.9704 56.6109 31.519 56.5802 30.9552 56.4932C28.4866 56.1911 26.7139 55.198 25.5761 53.57L21.0148 57.901L21.0453 57.9317L20.9844 57.9881C20.9844 57.9881 27.4047 62.3089 29.9596 68.8925H52.0345L79.8339 41.0222L73.1901 34.4898H73.1799Z" fill="url(#paint3_linear_651_8447)"/>
<path d="M14.0221 18.8294L12.8538 17.7184L12.0208 16.93L8.70905 13.7816C8.61254 13.6843 8.51095 13.587 8.40937 13.4795C8.28238 13.3259 8.16048 13.1672 8.03349 13.0034C7.56619 12.384 7.10397 11.6877 6.66714 10.93H2.04492C2.72556 12.4505 3.49762 13.7611 4.25445 14.8567C4.50841 15.2253 4.77254 15.5734 5.03159 15.9061C5.12302 16.0188 5.20936 16.1314 5.30079 16.244C6.95667 18.2867 10.9795 21.6604 10.9795 21.6604L14.017 18.8345L14.0221 18.8294Z" fill="url(#paint4_linear_651_8447)"/>
<path d="M9.83603 48.8857H19.3903C19.4614 48.814 19.5325 48.7423 19.6087 48.6655C19.8983 48.3686 20.1624 48.0512 20.4113 47.7287C20.4671 47.657 20.523 47.5853 20.5738 47.5136C20.6398 47.4164 20.7059 47.3293 20.7719 47.2372C20.8837 47.0734 21.0005 46.8993 21.1071 46.7304H7.83984C8.24111 47.2884 8.70334 47.8106 9.22143 48.2969L9.84111 48.8805L9.83603 48.8857Z" fill="url(#paint5_linear_651_8447)"/>
<path d="M5.68086 40.1775C5.68086 40.4488 5.69102 40.7253 5.71134 40.9863H22.9964C23.0421 40.2696 23.032 39.5478 22.9456 38.8311H5.76213C5.70626 39.2764 5.67578 39.7218 5.67578 40.1724L5.68086 40.1775Z" fill="url(#paint6_linear_651_8447)"/>
<path d="M20.7105 33.0256C20.6293 32.9078 20.548 32.7901 20.4617 32.6826C20.2483 32.4061 20.0197 32.1348 19.7759 31.8737C19.7658 31.8584 19.7556 31.8481 19.7455 31.8379C19.7201 31.8123 19.7048 31.7969 19.6794 31.7713C19.6439 31.7355 19.6083 31.6945 19.5728 31.6638C19.4661 31.5512 19.3594 31.4437 19.2477 31.3362H9.96768L9.21086 32.058C8.73848 32.5034 8.30673 32.9846 7.92578 33.4915H21.0153C20.9899 33.4556 20.9645 33.4147 20.9391 33.3788C20.8578 33.2662 20.7817 33.1433 20.7004 33.0307L20.7105 33.0256Z" fill="url(#paint7_linear_651_8447)"/>
<path d="M18.1961 13.0802L19.1154 12.2099C19.537 11.8106 19.918 11.3754 20.2684 10.93H8.73828C9.3732 11.8362 9.9878 12.5683 10.4551 13.0802H18.191H18.1961Z" fill="url(#paint8_linear_651_8447)"/>
<path d="M18.6488 66.6092H11.0806C10.5015 67.1212 9.74471 67.8532 9.02344 68.7594H20.8279C20.5841 68.4778 20.3301 68.2065 20.0558 67.9505L18.6438 66.6092H18.6488Z" fill="url(#paint9_linear_651_8447)"/>
<path d="M24.19 64.0034C24.19 64.0034 24.1544 63.9727 24.1392 63.9625C24.129 63.9471 24.1189 63.9369 24.1087 63.9266L24.0224 63.8396C23.9767 63.7986 23.936 63.7577 23.8954 63.7218L17.856 57.9727L17.9678 57.8703L17.9525 57.8549L24.1189 52.0034C30.9811 45.4812 30.9811 34.8737 24.1189 28.3618L18.049 22.6485L17.8256 22.4334H17.8154L18.049 22.2031C18.0694 22.1826 18.0897 22.1621 18.11 22.1365C21.4878 18.7474 25.1906 14.5495 26.8313 10.93H22.7932C21.5436 12.7833 19.8471 14.6724 18.2827 16.2645L15.0827 19.3003L15.0979 19.3157L14.7678 19.6229C14.4732 19.8891 14.2649 20.0836 14.1633 20.186L10.6992 23.4164L5.49285 28.3669C-1.34397 34.8686 -1.34397 45.5068 5.49285 52.0085L6.37158 52.843L10.7703 57.0154L12.4465 55.459L13.8129 54.1894L9.69857 50.2782L8.50492 49.1468C8.34238 48.9932 8.18492 48.8345 8.03254 48.6758C7.89539 48.5273 7.75825 48.3737 7.63127 48.2253C7.61095 48.2048 7.60079 48.1894 7.58555 48.1638C7.46872 48.0256 7.3519 47.8925 7.24523 47.744C7.2046 47.6928 7.15888 47.6365 7.11825 47.5802C7.04714 47.4881 6.98111 47.3959 6.91 47.3089C6.8592 47.227 6.79825 47.1502 6.74746 47.0683C6.74746 47.0683 6.74576 47.0666 6.74238 47.0631C6.69666 46.9863 6.64079 46.9147 6.59507 46.8379C6.5392 46.7457 6.48333 46.6536 6.42745 46.5666C6.38682 46.4949 6.34111 46.4334 6.30555 46.3618C6.24968 46.2594 6.18872 46.1621 6.13793 46.0597C6.10238 45.9932 6.06682 45.9317 6.03635 45.8652C5.98047 45.7628 5.9246 45.6553 5.87381 45.5478C5.84841 45.4863 5.81793 45.43 5.78745 45.3635C5.73666 45.256 5.68587 45.1433 5.64016 45.0358C5.61476 44.9744 5.59444 44.9181 5.56396 44.8515C5.51825 44.7389 5.46745 44.6263 5.42682 44.5136C5.4065 44.4522 5.38619 44.3959 5.36079 44.3345C5.32015 44.2218 5.27952 44.1041 5.23888 43.9915C5.22365 43.9249 5.20841 43.8737 5.18809 43.8123C5.15253 43.6945 5.1119 43.5768 5.08142 43.4539C5.06618 43.4027 5.05603 43.3464 5.04079 43.2901C5.01031 43.1724 4.97476 43.0495 4.94428 42.9266C4.93412 42.8754 4.92396 42.8191 4.91381 42.773C4.88841 42.6451 4.86301 42.5171 4.83253 42.3891C4.82746 42.3481 4.82238 42.3072 4.81222 42.2662C4.7919 42.128 4.7665 41.9898 4.75127 41.8464C4.75127 41.8464 4.74957 41.843 4.74619 41.8362C4.72587 41.6724 4.71063 41.5085 4.69539 41.3447C4.69031 41.3089 4.68523 41.273 4.68523 41.2372C4.67507 41.1041 4.66492 40.971 4.65984 40.8379C4.65476 40.8123 4.65476 40.7867 4.65476 40.756C4.65476 40.7253 4.64968 40.7099 4.64968 40.6843C4.64968 40.5921 4.6446 40.5 4.6446 40.413C4.6446 40.3823 4.63952 40.3464 4.63952 40.3106V40.157C4.63952 40.07 4.6446 39.9932 4.6446 39.9061C4.6446 39.8652 4.6446 39.8191 4.64968 39.7782V39.6399C4.65476 39.5478 4.65983 39.4556 4.66491 39.3737C4.66999 39.3225 4.67507 39.2662 4.68015 39.215C4.68015 39.1894 4.68015 39.1536 4.68523 39.128C4.69031 39.0563 4.69539 38.9898 4.70555 38.9181C4.72079 38.7491 4.7411 38.5802 4.77158 38.4164C4.77666 38.3703 4.78174 38.3191 4.7919 38.2679C4.79698 38.2423 4.79698 38.2167 4.80206 38.186C4.83762 37.9761 4.87825 37.7662 4.92396 37.5666C4.93412 37.4949 4.95444 37.4283 4.96968 37.3567C5.00523 37.198 5.05095 37.0341 5.09158 36.8754C5.1119 36.7986 5.13222 36.727 5.15761 36.6502C5.22365 36.4556 5.2846 36.2611 5.35571 36.0666C5.37095 36.0256 5.38111 35.9846 5.39634 35.9437C5.41158 35.913 5.42174 35.872 5.43698 35.8413C5.49793 35.6826 5.55888 35.5239 5.62999 35.3652C5.66047 35.2935 5.69603 35.2218 5.7265 35.1451C5.81285 34.9608 5.8992 34.7765 5.99063 34.5921C6.00079 34.5666 6.01603 34.541 6.02618 34.5102C6.05158 34.4642 6.07698 34.4181 6.10746 34.372C6.18873 34.2235 6.26999 34.0751 6.35634 33.9266C6.40206 33.8498 6.45285 33.773 6.49857 33.6962C6.60015 33.5375 6.70682 33.3737 6.81349 33.215C6.92523 33.0614 7.03698 32.8976 7.1538 32.7491C7.16904 32.7287 7.1792 32.7082 7.19444 32.6826C7.59063 32.1706 8.03253 31.6792 8.52015 31.2133L11.7506 28.1468C11.7862 28.116 11.8217 28.0751 11.8624 28.0392L14.6865 25.3567L14.717 25.3311V25.3157L14.7932 25.2491L14.8186 25.2696H14.8236L20.6852 30.8447L20.7157 30.8242L21.1373 31.2184C21.1779 31.2491 21.2186 31.2901 21.2541 31.3311C21.3659 31.4386 21.4725 31.5512 21.5792 31.6587C21.6097 31.6894 21.6503 31.7355 21.6859 31.7713C21.7062 31.7918 21.7214 31.8123 21.7519 31.8379C21.757 31.8481 21.7722 31.8584 21.7773 31.8737C22.0211 32.1348 22.2548 32.4113 22.463 32.6826C22.5544 32.7952 22.6306 32.9079 22.7119 33.0256C22.7982 33.1433 22.8694 33.2611 22.9506 33.3737C22.976 33.4096 23.0014 33.4556 23.0319 33.4915C24.1036 35.1297 24.7487 36.9625 24.957 38.8311C25.0382 39.5478 25.0484 40.2696 25.0027 40.9863C24.8706 42.9881 24.2408 44.9693 23.1132 46.7406C23.0065 46.9096 22.8948 47.0785 22.783 47.2423C22.7119 47.3345 22.6509 47.4266 22.5849 47.5136H22.5798C22.529 47.5904 22.4732 47.657 22.4173 47.7338C22.1684 48.0563 21.9043 48.3686 21.6148 48.6706C21.5386 48.7474 21.4675 48.814 21.3963 48.8857C21.31 48.9778 21.2236 49.0648 21.1424 49.1416L15.6363 54.3686H15.6313L15.3875 54.6092V54.6195L11.5119 58.2287L9.81539 59.8413C7.14364 62.5444 4.34999 65.7799 2.85666 68.8925H7.31126C8.49983 67.1775 9.95253 65.5341 11.2732 64.1724L14.7322 60.8857C14.7678 60.8498 14.8033 60.8191 14.8338 60.7935L20.6954 66.3635H20.7005L20.924 66.5734C21.6757 67.285 22.3005 68.0683 22.8338 68.8925H27.6186C26.7855 67.0648 25.6173 65.4061 24.2154 64.0085H24.2205L24.19 64.0034Z" fill="url(#paint10_linear_651_8447)"/>
<path d="M167.642 0L164.376 23.7235L156.523 18.942L127.942 46.4232H105.516L83.238 68.8874H58.6387L93.9149 35.3293H117.361L144.272 11.3038L133.671 5.4471L167.642 0Z" fill="url(#paint11_linear_651_8447)"/>
<defs>
<linearGradient id="paint0_linear_651_8447" x1="48.4599" y1="44.8413" x2="48.4599" y2="7.59727" gradientUnits="userSpaceOnUse">
<stop stop-color="#A91415"/>
<stop offset="1" stop-color="#FC0000"/>
</linearGradient>
<linearGradient id="paint1_linear_651_8447" x1="121.267" y1="54.901" x2="94.0979" y2="23.6379" gradientUnits="userSpaceOnUse">
<stop stop-color="#05671C"/>
<stop offset="0.29" stop-color="#2A8C13"/>
<stop offset="0.57" stop-color="#46A80D"/>
<stop offset="0.82" stop-color="#57B909"/>
<stop offset="1" stop-color="#5EC008"/>
</linearGradient>
<linearGradient id="paint2_linear_651_8447" x1="153.728" y1="93.0768" x2="112.085" y2="40.1264" gradientUnits="userSpaceOnUse">
<stop stop-color="#05671C"/>
<stop offset="0.29" stop-color="#2A8C13"/>
<stop offset="0.57" stop-color="#46A80D"/>
<stop offset="0.82" stop-color="#57B909"/>
<stop offset="1" stop-color="#5EC008"/>
</linearGradient>
<linearGradient id="paint3_linear_651_8447" x1="50.4041" y1="69" x2="50.4041" y2="5.2372" gradientUnits="userSpaceOnUse">
<stop stop-color="#A91415"/>
<stop offset="1" stop-color="#FC0000"/>
</linearGradient>
<linearGradient id="paint4_linear_651_8447" x1="8.03857" y1="69" x2="8.03857" y2="5.2372" gradientUnits="userSpaceOnUse">
<stop stop-color="#05671C"/>
<stop offset="0.29" stop-color="#2A8C13"/>
<stop offset="0.57" stop-color="#46A80D"/>
<stop offset="0.82" stop-color="#57B909"/>
<stop offset="1" stop-color="#5EC008"/>
</linearGradient>
<linearGradient id="paint5_linear_651_8447" x1="14.4735" y1="69" x2="14.4735" y2="5.23721" gradientUnits="userSpaceOnUse">
<stop stop-color="#05671C"/>
<stop offset="0.29" stop-color="#2A8C13"/>
<stop offset="0.57" stop-color="#46A80D"/>
<stop offset="0.82" stop-color="#57B909"/>
<stop offset="1" stop-color="#5EC008"/>
</linearGradient>
<linearGradient id="paint6_linear_651_8447" x1="14.3513" y1="69" x2="14.3513" y2="5.23721" gradientUnits="userSpaceOnUse">
<stop stop-color="#05671C"/>
<stop offset="0.29" stop-color="#2A8C13"/>
<stop offset="0.57" stop-color="#46A80D"/>
<stop offset="0.82" stop-color="#57B909"/>
<stop offset="1" stop-color="#5EC008"/>
</linearGradient>
<linearGradient id="paint7_linear_651_8447" x1="14.4782" y1="69" x2="14.4782" y2="5.23721" gradientUnits="userSpaceOnUse">
<stop stop-color="#05671C"/>
<stop offset="0.29" stop-color="#2A8C13"/>
<stop offset="0.57" stop-color="#46A80D"/>
<stop offset="0.82" stop-color="#57B909"/>
<stop offset="1" stop-color="#5EC008"/>
</linearGradient>
<linearGradient id="paint8_linear_651_8447" x1="14.5034" y1="69" x2="14.5034" y2="5.2372" gradientUnits="userSpaceOnUse">
<stop stop-color="#05671C"/>
<stop offset="0.29" stop-color="#2A8C13"/>
<stop offset="0.57" stop-color="#46A80D"/>
<stop offset="0.82" stop-color="#57B909"/>
<stop offset="1" stop-color="#5EC008"/>
</linearGradient>
<linearGradient id="paint9_linear_651_8447" x1="14.9257" y1="69" x2="14.9257" y2="5.23725" gradientUnits="userSpaceOnUse">
<stop stop-color="#05671C"/>
<stop offset="0.29" stop-color="#2A8C13"/>
<stop offset="0.57" stop-color="#46A80D"/>
<stop offset="0.82" stop-color="#57B909"/>
<stop offset="1" stop-color="#5EC008"/>
</linearGradient>
<linearGradient id="paint10_linear_651_8447" x1="14.8033" y1="69" x2="14.8033" y2="5.2372" gradientUnits="userSpaceOnUse">
<stop stop-color="#05671C"/>
<stop offset="0.29" stop-color="#2A8C13"/>
<stop offset="0.57" stop-color="#46A80D"/>
<stop offset="0.82" stop-color="#57B909"/>
<stop offset="1" stop-color="#5EC008"/>
</linearGradient>
<linearGradient id="paint11_linear_651_8447" x1="92.8838" y1="103.367" x2="125.547" y2="4.86235" gradientUnits="userSpaceOnUse">
<stop stop-color="#A91415"/>
<stop offset="1" stop-color="#FC0000"/>
</linearGradient>
</defs>
</svg>
