<svg id="Layer_1" data-name="Layer 1" xmlns="http://www.w3.org/2000/svg" viewBox="0 0 800.05 700.04"><defs><style>.cls-1{fill:#fff;}</style></defs><path class="cls-1" d="M1498.92,447.71,1421.26,603c-9.37,18.9-36.56,18.28-45.15-.94L1287.2,404.75l-46.87,112h-147l285.15,291.4a27.84,27.84,0,0,0,40.16,0l285.31-291.4H1533.45l-34.53-69.07Zm239.84-265.46-3.75-3.91a204.68,204.68,0,0,0-292.81,0L1398.61,223,1355,178.5a204.4,204.4,0,0,0-292.81,0l-3.75,3.75c-76.09,77.81-79.37,201.71-11.4,284.53h160l56.09-134.69c8.44-20.16,36.87-20.63,45.94-.63l90.93,202,76.57-153c9.22-18.44,35.47-18.44,44.68,0l43.13,86.25h185.78c68-82.82,64.69-206.72-11.41-284.53Z" transform="translate(-998.59 -116.7)"/></svg>