<svg id="Layer_1" data-name="Layer 1" xmlns="http://www.w3.org/2000/svg" xmlns:xlink="http://www.w3.org/1999/xlink" viewBox="0 0 504 193.38"><defs><style>.cls-1{fill:url(#linear-gradient);}.cls-2{fill:url(#linear-gradient-2);}.cls-3{fill:url(#linear-gradient-3);}.cls-4{fill:url(#linear-gradient-4);}.cls-5{fill:url(#linear-gradient-5);}.cls-6{fill:url(#linear-gradient-6);}.cls-7{fill:url(#linear-gradient-7);}.cls-8{fill:url(#linear-gradient-8);}.cls-9{fill:url(#linear-gradient-9);}.cls-10{fill:url(#linear-gradient-10);}.cls-11{fill:url(#linear-gradient-11);}.cls-12{fill:url(#linear-gradient-12);}.cls-13{fill:url(#linear-gradient-13);}.cls-14{fill:url(#linear-gradient-14);}.cls-15{fill:url(#linear-gradient-15);}.cls-16{fill:url(#linear-gradient-16);}.cls-17{fill:url(#linear-gradient-17);}.cls-18{fill:url(#linear-gradient-18);}.cls-19{fill:url(#linear-gradient-19);}.cls-20{fill:url(#linear-gradient-20);}.cls-21{fill:url(#linear-gradient-21);}.cls-22{fill:url(#linear-gradient-22);}.cls-23{fill:url(#linear-gradient-23);}</style><linearGradient id="linear-gradient" x1="23.18" y1="196.39" x2="23.18" y2="154.28" gradientUnits="userSpaceOnUse"><stop offset="0" stop-color="#a91415"/><stop offset="1" stop-color="#fc0000"/></linearGradient><linearGradient id="linear-gradient-2" x1="69.54" y1="196.37" x2="69.54" y2="154.29" xlink:href="#linear-gradient"/><linearGradient id="linear-gradient-3" x1="111.8" y1="196.37" x2="111.8" y2="154.29" xlink:href="#linear-gradient"/><linearGradient id="linear-gradient-4" x1="329.19" y1="397.54" x2="329.19" y2="355.45" xlink:href="#linear-gradient"/><linearGradient id="linear-gradient-5" x1="221.27" y1="196.37" x2="221.27" y2="154.29" gradientUnits="userSpaceOnUse"><stop offset="0" stop-color="#05671c"/><stop offset="0.29" stop-color="#2a8c14"/><stop offset="0.57" stop-color="#47a90d"/><stop offset="0.82" stop-color="#58ba09"/><stop offset="1" stop-color="#5ec008"/></linearGradient><linearGradient id="linear-gradient-6" x1="268.07" y1="196.37" x2="268.07" y2="154.29" xlink:href="#linear-gradient-5"/><linearGradient id="linear-gradient-7" x1="482.81" y1="397.54" x2="482.81" y2="355.45" xlink:href="#linear-gradient-5"/><linearGradient id="linear-gradient-8" x1="360.35" y1="196.37" x2="360.35" y2="154.29" xlink:href="#linear-gradient-5"/><linearGradient id="linear-gradient-9" x1="393.47" y1="196.37" x2="393.47" y2="154.29" xlink:href="#linear-gradient-5"/><linearGradient id="linear-gradient-10" x1="435.37" y1="196.37" x2="435.37" y2="154.29" xlink:href="#linear-gradient-5"/><linearGradient id="linear-gradient-11" x1="480.74" y1="196.39" x2="480.74" y2="154.28" xlink:href="#linear-gradient"/><linearGradient id="linear-gradient-12" x1="351.42" y1="288.75" x2="351.42" y2="216" xlink:href="#linear-gradient"/><linearGradient id="linear-gradient-13" x1="325.37" y1="107.24" x2="272.36" y2="45.76" xlink:href="#linear-gradient-5"/><linearGradient id="linear-gradient-14" x1="389.28" y1="181.81" x2="308.09" y2="77.76" xlink:href="#linear-gradient-5"/><linearGradient id="linear-gradient-15" x1="355.25" y1="335.94" x2="355.25" y2="211.39" xlink:href="#linear-gradient"/><linearGradient id="linear-gradient-16" x1="271.84" y1="335.94" x2="271.84" y2="211.39" xlink:href="#linear-gradient-5"/><linearGradient id="linear-gradient-17" x1="284.51" y1="335.94" x2="284.51" y2="211.39" xlink:href="#linear-gradient-5"/><linearGradient id="linear-gradient-18" x1="284.27" y1="335.94" x2="284.27" y2="211.39" xlink:href="#linear-gradient-5"/><linearGradient id="linear-gradient-19" x1="284.52" y1="335.94" x2="284.52" y2="211.39" xlink:href="#linear-gradient-5"/><linearGradient id="linear-gradient-20" x1="284.58" y1="335.94" x2="284.58" y2="211.39" xlink:href="#linear-gradient-5"/><linearGradient id="linear-gradient-21" x1="285.4" y1="335.94" x2="285.4" y2="211.39" xlink:href="#linear-gradient-5"/><linearGradient id="linear-gradient-22" x1="285.17" y1="335.94" x2="285.17" y2="211.39" xlink:href="#linear-gradient-5"/><linearGradient id="linear-gradient-23" x1="269.49" y1="201.91" x2="332.89" y2="9.2" xlink:href="#linear-gradient"/></defs><polygon class="cls-1" points="29.64 173.58 35.31 178 35.31 185.59 17.09 185.59 17.09 163.88 45.12 163.88 45.12 156.6 0 156.6 5.96 161.2 5.96 193.38 46.36 193.38 46.36 173.58 29.64 173.58"/><polygon class="cls-2" points="52.59 193.37 86.49 193.37 86.49 185.58 63.7 185.58 63.7 177.79 86.49 177.79 86.49 170.21 63.7 170.21 63.7 163.87 86.49 163.87 86.49 156.6 52.59 156.6 52.59 193.37"/><polygon class="cls-3" points="122.89 176.75 101.81 156.6 92.72 156.6 92.72 193.37 100.71 193.37 100.71 170.73 124.24 193.37 130.88 193.37 130.88 156.6 122.89 156.6 122.89 176.75"/><path class="cls-4" d="M323.84,357.77,302.6,394.53h9l5.19-9.45h21l5.35,9.45h12.61l-21.13-36.76Zm-2.91,19.73,6.18-11.27,6.39,11.27Z" transform="translate(-169.39 -201.16)"/><polygon class="cls-5" points="231.7 170.21 216.44 170.21 216.44 156.6 199.72 156.6 205.32 160.97 205.32 193.37 216.44 193.37 216.44 177.79 231.7 177.79 231.7 193.37 242.81 193.37 242.81 156.6 231.7 156.6 231.7 170.21"/><polygon class="cls-6" points="251.11 193.37 285.02 193.37 285.02 185.58 262.23 185.58 262.23 177.79 285.02 177.79 285.02 170.21 262.23 170.21 262.23 163.87 285.02 163.87 285.02 156.6 251.11 156.6 251.11 193.37"/><path class="cls-7" d="M477.46,357.77l-21.24,36.76h9l5.19-9.45h21l5.35,9.45h12.61l-21.13-36.76Zm-2.91,19.73,6.18-11.27,6.39,11.27Z" transform="translate(-169.39 -201.16)"/><polygon class="cls-8" points="353.44 156.6 342.33 156.6 342.33 193.37 378.37 193.37 378.37 185.58 353.44 185.58 353.44 156.6"/><polygon class="cls-9" points="375.25 163.87 387.92 163.87 387.92 193.37 399.03 193.37 399.03 163.87 411.7 163.87 411.7 156.6 375.25 156.6 375.25 163.87"/><polygon class="cls-10" points="443 170.21 427.74 170.21 427.74 156.6 416.62 156.6 416.62 193.37 427.74 193.37 427.74 177.79 443 177.79 443 193.37 454.11 193.37 454.11 156.6 443 156.6 443 170.21"/><polygon class="cls-11" points="493.22 186.74 493.22 186.74 483.03 173.01 496.37 156.6 485.99 156.6 477.99 166.31 470.67 156.6 457.48 156.6 472.13 176.13 458.31 193.37 468.7 193.37 477.16 182.82 485.01 193.38 498.15 193.38 504 193.38 493.22 186.74"/><path class="cls-12" d="M384.67,222.7l21.06,22.37-85.21-.2c-7.65,0-12.68,2.57-15.21,7.64l-8.19-7.66c8.54-8.83,13.87-16.08,16.24-22.15l.08-.2Z" transform="translate(-169.39 -201.16)"/><polygon class="cls-13" points="308.62 60.77 265.09 60.77 227.98 21.33 272.77 21.33 308.62 60.77"/><polygon class="cls-14" points="375.68 134.56 335.21 134.56 301.34 98.91 343.28 98.91 375.68 134.56"/><path class="cls-15" d="M400.1,268.54H345.4l-14.28,21h44.5l-27.13,22.15s-30.42-.07-31.53-.23c-4.87-.59-8.36-2.53-10.59-5.71l-9,8.46.06.06-.12.12S310,322.88,315,335.74h43.46l54.73-54.44Z" transform="translate(-169.39 -201.16)"/><path class="cls-16" d="M283.62,237.94l-2.3-2.17-1.63-1.54-6.52-6.15-.59-.59c-.25-.3-.49-.61-.74-.93a38.46,38.46,0,0,1-2.69-4.05h-9.1a47.84,47.84,0,0,0,4.35,7.67c.51.72,1,1.4,1.54,2l.53.66c3.26,4,11.18,10.58,11.18,10.58Z" transform="translate(-169.39 -201.16)"/><path class="cls-17" d="M275.38,296.66h18.81l.43-.43c.56-.59,1.09-1.2,1.58-1.83l.32-.42h0l.39-.53c.22-.32.44-.65.65-1H271.45a21.13,21.13,0,0,0,2.71,3.06Z" transform="translate(-169.39 -201.16)"/><path class="cls-18" d="M267.2,279.64c0,.53,0,1.07.06,1.58h34a22.68,22.68,0,0,0-.1-4.2H267.37A20.71,20.71,0,0,0,267.2,279.64Z" transform="translate(-169.39 -201.16)"/><path class="cls-19" d="M296.79,265.68c-.16-.24-.32-.46-.49-.67-.42-.54-.87-1.07-1.35-1.58,0,0-.05-.05-.06-.08l-.13-.13-.2-.21-.64-.64H275.65l-1.49,1.41a22.14,22.14,0,0,0-2.52,2.8h25.77l-.15-.22C297.1,266.13,297,265.9,296.79,265.68Z" transform="translate(-169.39 -201.16)"/><path class="cls-20" d="M291.84,226.72l1.82-1.71a21.26,21.26,0,0,0,2.26-2.5H273.23a41.06,41.06,0,0,0,3.38,4.21Z" transform="translate(-169.39 -201.16)"/><path class="cls-21" d="M292.73,331.27h-14.9a33.83,33.83,0,0,0-4.05,4.2H297c-.48-.54-1-1.07-1.52-1.58Z" transform="translate(-169.39 -201.16)"/><path class="cls-22" d="M303.64,326.18l-.1-.08-.07-.07-.16-.17c-.1-.08-.17-.16-.25-.23l-11.9-11.23.22-.2,0,0,12.13-11.43a31.38,31.38,0,0,0,0-46.18L291.54,245.4l-.44-.42h0l.46-.44.12-.12c6.65-6.62,13.94-14.83,17.17-21.9h-7.95A76.75,76.75,0,0,1,292,232.93l-6.3,5.93,0,0-.65.6c-.57.52-1,.9-1.19,1.1l-6.82,6.31-10.25,9.66a31.44,31.44,0,0,0,0,46.18l1.72,1.63,8.66,8.15,3.3-3,2.69-2.48-8.1-7.64h0l-2.35-2.22c-.33-.3-.63-.6-.93-.92s-.55-.58-.8-.88l-.09-.11c-.23-.27-.46-.54-.67-.82l-.25-.32-.41-.54-.33-.47h0l-.29-.44-.33-.53a4.23,4.23,0,0,1-.24-.4c-.12-.2-.23-.38-.34-.58l-.2-.38c-.11-.2-.22-.41-.32-.62s-.12-.23-.17-.35-.2-.43-.29-.64l-.15-.36c-.09-.22-.19-.44-.27-.66s-.08-.23-.13-.34-.15-.45-.24-.67h0c0-.12-.06-.22-.1-.34s-.15-.46-.21-.7-.05-.21-.08-.32-.13-.47-.19-.71a2.82,2.82,0,0,0-.07-.31l-.15-.75a2,2,0,0,0,0-.24c-.05-.27-.1-.54-.13-.82,0,0,0,0,0,0,0-.32-.07-.63-.1-1a.71.71,0,0,1,0-.21c0-.26,0-.52-.05-.78a.86.86,0,0,1,0-.16s0-.09,0-.14,0-.35,0-.53,0-.12,0-.2v-.3c0-.17,0-.33,0-.49a2,2,0,0,1,0-.25v-.28l0-.52,0-.31a.91.91,0,0,1,0-.17c0-.14,0-.27.05-.41,0-.33.07-.66.12-1a2.89,2.89,0,0,1,0-.29c0-.06,0-.11,0-.16.08-.41.15-.82.25-1.22,0-.13.06-.27.09-.4.07-.32.16-.63.24-.94,0-.15.08-.3.13-.44.12-.38.25-.77.38-1.14,0-.09.06-.16.09-.24s.05-.14.08-.2c.12-.32.24-.62.38-.93l.18-.43c.17-.36.34-.73.53-1.08l.07-.16.16-.27c.16-.29.32-.58.49-.87l.28-.45.62-.94c.22-.3.44-.62.67-.91l.08-.13a27,27,0,0,1,2.62-2.86l6.36-6,.22-.21,5.55-5.24.07-.05v0l.13-.13.06.05h0l11.53,10.88.07-.05.82.78a1,1,0,0,1,.23.22l.64.64.21.22a.77.77,0,0,0,.13.12s0,0,.05.07c.48.52.94,1.05,1.35,1.58.18.22.33.44.49.67s.31.46.47.68l.16.23A23.81,23.81,0,0,1,305.09,277a25.8,25.8,0,0,1,.09,4.21,23.71,23.71,0,0,1-3.72,11.24c-.21.33-.43.65-.65,1s-.27.35-.39.53h0l-.33.43a20.92,20.92,0,0,1-1.58,1.83l-.42.42c-.17.18-.34.35-.51.5l-10.83,10.21h0l-.49.46v0l-7.62,7.06-3.34,3.14c-5.26,5.28-10.76,11.6-13.7,17.69h8.77a74.81,74.81,0,0,1,7.8-9.22l6.81-6.43a1.51,1.51,0,0,1,.2-.17h0l11.53,10.87h0l.43.4a25,25,0,0,1,3.77,4.54h9.42a32.49,32.49,0,0,0-6.7-9.55Z" transform="translate(-169.39 -201.16)"/><polygon class="cls-23" points="416.67 0 410.24 46.34 394.78 37 338.51 90.68 294.36 90.68 250.5 134.56 202.07 134.56 271.51 69.01 317.68 69.01 370.66 22.08 349.79 10.64 416.67 0"/></svg>