<svg id="_2" data-name="2" xmlns="http://www.w3.org/2000/svg" viewBox="0 0 800 799.91"><defs><style>.cls-1{fill:#fff;}</style></defs><path class="cls-1" d="M2289.84-209.3a235.06,235.06,0,0,0-167-69,235,235,0,0,0-167,69L1827-80.51,2161,253.42l128.8-128.8C2382,32.36,2382-117.13,2289.84-209.3ZM2199.45-189a39.72,39.72,0,0,1-46.64,31.47,210.07,210.07,0,0,0-37.56-3.66,194.57,194.57,0,0,0-37.57,3.66,39.85,39.85,0,0,1-35.68-11,39.72,39.72,0,0,1-10.87-20.61,39.79,39.79,0,0,1,31.57-46.55,275.55,275.55,0,0,1,52.64-5.06,283.81,283.81,0,0,1,52.64,5.06A39.72,39.72,0,0,1,2199.45-189Z" transform="translate(-1558.96 278.33)"/><path class="cls-1" d="M1628.08,118.44a236.33,236.33,0,0,0,0,334c92.17,92.17,241.67,92.17,333.93-.09l128.69-128.7L1756.78-10.26Z" transform="translate(-1558.96 278.33)"/></svg>