<svg id="Layer_1" data-name="Layer 1" xmlns="http://www.w3.org/2000/svg" viewBox="0 0 469.33 666.66"><defs><style>.cls-1,.cls-2{fill:#fff;}.cls-1{isolation:isolate;}</style></defs><path class="cls-1" d="M1326.61,91.83c-87.33,0-158.33,71-158.33,158.33,0,85.67,67,155,154.33,158a27.13,27.13,0,0,1,7.33,0h2.34c85.33-3,152.33-72.33,152.66-158C1484.94,162.83,1413.94,91.83,1326.61,91.83Z" transform="translate(-1091.97 -91.83)"/><path class="cls-2" d="M1496,496.83c-93-62-244.66-62-338.33,0-42.33,28.33-65.67,66.66-65.67,107.66s23.34,79,65.34,107c46.66,31.34,108,47,169.33,47s122.67-15.66,169.33-47c42-28.33,65.34-66.33,65.34-107.66C1561,562.83,1538,524.83,1496,496.83Z" transform="translate(-1091.97 -91.83)"/></svg>