<svg id="Layer_1" data-name="Layer 1" xmlns="http://www.w3.org/2000/svg" viewBox="0 0 800 765.2"><defs><style>.cls-1{fill:#fff;}</style></defs><path class="cls-1" d="M3077.91,409.75l-104.79-15.22-46.86-95c-9.56-19.36-37.25-19.35-46.8,0l-46.86,95-104.79,15.22c-21.37,3.11-29.91,29.44-14.46,44.51l75.83,73.91-17.91,104.36c-3.65,21.28,18.76,37.56,37.86,27.51l93.73-49.27L2996.58,660c19,10,41.54-6.06,37.86-27.51l-17.9-104.36,75.83-73.91C3107.83,439.18,3099.26,412.86,3077.91,409.75Z" transform="translate(-2502.78 -285.05)"/><path class="cls-1" d="M2691,664.08H2528.87a26.1,26.1,0,0,0-26.09,26.09v334a26.1,26.1,0,0,0,26.09,26.09H2691a26.09,26.09,0,0,0,26.09-26.09v-334A26.09,26.09,0,0,0,2691,664.08Z" transform="translate(-2502.78 -285.05)"/><path class="cls-1" d="M3285.76,777.5A80.41,80.41,0,0,0,3171,765.84L3047.37,869.57h-105l56.15-47.12c42.72-35.84,19.34-107.74-38.87-107.74H2769.24V1025.2a78.38,78.38,0,0,0,49.21,17.43H3063a78.38,78.38,0,0,0,50.31-18.31l160.27-134.47C3307.1,861.7,3312.58,811.3,3285.76,777.5Z" transform="translate(-2502.78 -285.05)"/></svg>