<svg id="Layer_1" data-name="Layer 1" xmlns="http://www.w3.org/2000/svg" viewBox="0 0 550 750"><defs><style>.cls-1{fill:#fff;}</style></defs><path class="cls-1" d="M2455.71-227c-55.41,99.68,99.35,173.81,12,211.15s-129.33-45.37-173.18-150.8-8.63-221.17,78.69-258.5S2529-358.93,2455.71-227" transform="translate(-2242.74 542.33)"/><path class="cls-1" d="M2417.16-499.32c.19-29.12,19.68-43.21,43.58-43s43.16,14.53,43,43.65c-.29,41.68-19.8,62-43.69,61.85s-43.15-20.8-42.84-62.49" transform="translate(-2242.74 542.33)"/><path class="cls-1" d="M2344.44-485.17c-3.05-20.73,9.24-32.91,26.25-35.47s32.26,5.45,35.3,26.17c4.35,29.65-7.28,46.3-24.28,48.87s-32.92-9.93-37.27-39.57" transform="translate(-2242.74 542.33)"/><path class="cls-1" d="M2291-449.2c-4.92-17.68,4.47-29.67,19-33.79s28.66,1.15,33.57,18.85c7,25.29-1.31,41.06-15.84,45.19s-29.73-5-36.73-30.25" transform="translate(-2242.74 542.33)"/><path class="cls-1" d="M2262.1-399.33c-5.59-13,.35-23.21,11.05-27.92s22.1-2.18,27.7,10.86c8,18.65,3.26,31.61-7.44,36.35s-23.28-.64-31.31-19.29" transform="translate(-2242.74 542.33)"/><path class="cls-1" d="M2244.45-356c-4.46-10.42.26-18.55,8.84-22.31s17.65-1.76,22.14,8.66c6.38,14.89,2.6,25.27-6,29.05s-18.61-.51-25-15.4" transform="translate(-2242.74 542.33)"/><path class="cls-1" d="M2558.34-15.42c36.35,108.33-129.25,152.3-50.23,205.3S2643.48,169.45,2705.75,74s48.7-215.78-30.37-268.8-165.14,36-117,179.37" transform="translate(-2242.74 542.33)"/><path class="cls-1" d="M2645.69-275.87c5.1-28.66-11.49-46.15-35-50.45s-45.08,6.23-50.17,34.89c-7.28,41,8.2,64.65,31.73,69s46.17-12.36,53.45-53.39" transform="translate(-2242.74 542.33)"/><path class="cls-1" d="M2714.6-248.39c6.76-19.8-3.1-34.09-19.35-39.78s-32.69-.66-39.45,19.15c-9.66,28.3-1.26,46.85,15,52.54s34.17-3.6,43.82-31.91" transform="translate(-2242.74 542.33)"/><path class="cls-1" d="M2760.64-203c8-16.48,1-30-12.53-36.77s-28.38-4.22-36.42,12.25c-11.49,23.57-6.18,40.6,7.34,47.39s30.11.68,41.61-22.87" transform="translate(-2242.74 542.33)"/><path class="cls-1" d="M2779.93-148.64c7.87-11.76,3.88-22.9-5.79-29.51s-21.31-6.28-29.19,5.48c-11.24,16.83-8.95,30.48.73,37.12s23,3.73,34.25-13.09" transform="translate(-2242.74 542.33)"/><path class="cls-1" d="M2789.4-102.74c6.29-9.4,3.09-18.29-4.62-23.59s-17-5-23.33,4.4c-9,13.45-7.12,24.33.58,29.65s18.38,3,27.37-10.46" transform="translate(-2242.74 542.33)"/></svg>