<svg id="Layer_1" data-name="Layer 1" xmlns="http://www.w3.org/2000/svg" viewBox="0 0 738.46 738.46"><defs><style>.cls-1{fill:#fff;}</style></defs><path class="cls-1" d="M1938.37,667.69V600c78.46-13.85,138.46-83.08,138.46-166.15a169.23,169.23,0,1,0-338.46,0c0,83.07,60,152.3,138.46,166.15v67.69c-78.46,13.85-138.46,83.08-138.46,166.16a169.23,169.23,0,0,0,338.46,0C2076.83,750.77,2016.83,683.08,1938.37,667.69ZM1799.91,433.85A107.69,107.69,0,1,1,1907.6,541.54C1847.6,541.54,1799.91,495.38,1799.91,433.85Z" transform="translate(-1738.37 -264.62)"/><path class="cls-1" d="M2170.68,372.31h275.38a30.86,30.86,0,0,1,30.77,30.77v61.54a30.86,30.86,0,0,1-30.77,30.76H2170.68a30.85,30.85,0,0,1-30.77-30.76V403.08A30.85,30.85,0,0,1,2170.68,372.31Z" transform="translate(-1738.37 -264.62)"/><path class="cls-1" d="M2170.68,772.31h275.38a30.86,30.86,0,0,1,30.77,30.77v61.54a30.86,30.86,0,0,1-30.77,30.76H2170.68a30.85,30.85,0,0,1-30.77-30.76V803.08C2139.91,787.69,2153.75,772.31,2170.68,772.31Z" transform="translate(-1738.37 -264.62)"/></svg>