<svg id="Layer_1" data-name="Layer 1" xmlns="http://www.w3.org/2000/svg" viewBox="0 0 665.95 466.84"><defs><style>.cls-1{fill:#fff;}</style></defs><g id="_-Product-Icons" data-name="ðŸ”-Product-Icons"><g id="ic_fluent_payment_24_filled" data-name="ic fluent payment 24 filled"><path id="_-Color" data-name="ðŸŽ¨-Color" class="cls-1" d="M2063.38,397.79l0,176a91.68,91.68,0,0,1-86.09,91.5l-5.58.17H1489.14a91.67,91.67,0,0,1-91.5-86.09l-.17-5.58,0-176ZM1938.86,514.64h-83.33l-3.39.23a25,25,0,0,0,0,49.54l3.39.23h83.33l3.4-.23a25,25,0,0,0,0-49.54Zm32.87-316a91.68,91.68,0,0,1,91.5,86.08l.17,5.59,0,57.46H1397.45l0-57.46a91.67,91.67,0,0,1,86.08-91.5l5.59-.17Z" transform="translate(-1397.45 -198.66)"/></g></g></svg>