<svg id="Layer_1" data-name="Layer 1" xmlns="http://www.w3.org/2000/svg" viewBox="0 0 750 450"><defs><style>.cls-1{fill:#fff;}</style></defs><path class="cls-1" d="M1540,135.09c-57,0-125,21.66-125,125v200c0,103.33,68,125,125,125s125-21.67,125-125v-200C1665,156.75,1597,135.09,1540,135.09Z" transform="translate(-992.3 -135.09)"/><path class="cls-1" d="M1194.65,135.09c-57,0-125,21.66-125,125v200c0,103.33,68,125,125,125s125-21.67,125-125v-200C1319.65,156.75,1251.65,135.09,1194.65,135.09Z" transform="translate(-992.3 -135.09)"/><path class="cls-1" d="M1415,335.09h-95.33v50H1415Z" transform="translate(-992.3 -135.09)"/><path class="cls-1" d="M1717.3,468.42a25.18,25.18,0,0,1-25-25V276.75a25,25,0,0,1,50,0V443.42A25.18,25.18,0,0,1,1717.3,468.42Z" transform="translate(-992.3 -135.09)"/><path class="cls-1" d="M1017.3,468.42a25.18,25.18,0,0,1-25-25V276.75a25,25,0,0,1,50,0V443.42A25.18,25.18,0,0,1,1017.3,468.42Z" transform="translate(-992.3 -135.09)"/></svg>